<?xml version="1.0" encoding="UTF-8" standalone="no"?>
<!-- Created with Inkscape (http://www.inkscape.org/) -->

<svg
   width="150"
   height="150"
   viewBox="0 0 39.6875 39.6875"
   version="1.1"
   id="svg1"
   xml:space="preserve"
   inkscape:version="1.3 (0e150ed6c4, 2023-07-21)"
   sodipodi:docname="TELogo.svg"
   inkscape:export-filename="TELogo.png"
   inkscape:export-xdpi="96"
   inkscape:export-ydpi="96"
   xmlns:inkscape="http://www.inkscape.org/namespaces/inkscape"
   xmlns:sodipodi="http://sodipodi.sourceforge.net/DTD/sodipodi-0.dtd"
   xmlns="http://www.w3.org/2000/svg"
   xmlns:svg="http://www.w3.org/2000/svg"><sodipodi:namedview
     id="namedview1"
     pagecolor="#ffffff"
     bordercolor="#000000"
     borderopacity="0.25"
     inkscape:showpageshadow="2"
     inkscape:pageopacity="0.0"
     inkscape:pagecheckerboard="0"
     inkscape:deskcolor="#d1d1d1"
     inkscape:document-units="mm"
     inkscape:zoom="4.2179991"
     inkscape:cx="95.187313"
     inkscape:cy="76.932212"
     inkscape:window-width="1920"
     inkscape:window-height="1051"
     inkscape:window-x="-9"
     inkscape:window-y="-9"
     inkscape:window-maximized="1"
     inkscape:current-layer="layer2"
     inkscape:export-bgcolor="#ffffff00" /><defs
     id="defs1" /><g
     inkscape:label="Layer 1"
     inkscape:groupmode="layer"
     id="layer1"
     transform="translate(-101.27537,-55.478208)"><g
       id="g4"
       transform="translate(0,6.6145837)"><circle
         style="fill:#0000ff;stroke-width:0.0874617"
         id="path2"
         cx="120.79522"
         cy="68.707375"
         r="13.229167" /><g
         id="g3"
         transform="matrix(0.99524,0,0,0.99524,0.48207061,0.26431568)"><path
           d="m 125.73365,66.342658 -8.81776,-9.527154 c -0.75734,-0.812791 -1.81363,-1.280216 -2.92366,-1.27918 l -3.19896,-0.0078 c -0.77535,0.0016 -1.25361,0.843092 -0.86147,1.507454 l 5.54371,9.376973 -6.89728,0.04771 -2.5192,-3.071856 c -0.37578,-0.460783 -0.94433,-0.732227 -1.53839,-0.730318 l -2.24515,-0.0036 c -0.64983,0.0018 -1.12771,0.606241 -0.96972,1.236796 l 1.68779,6.79944 c 0.14135,0.56639 0.5227,1.043917 1.04104,1.304105 l 7.67483,3.852534 c 0.27869,0.139889 0.5854,0.210037 0.89216,0.21058 l 19.0265,0.03274 c 3.24361,0.0023 6.36919,-1.219919 8.7517,-3.422258 1.23451,-1.138769 0.94764,-3.166818 -0.55724,-3.92222 l -3.19922,-1.605913 c -1.12589,-0.565157 -2.37487,-0.857175 -3.63552,-0.848006 z"
           id="path1"
           style="fill:#000080;stroke-width:0.0623637"
           sodipodi:nodetypes="ccccccccccccsscccsscc" /><text
           xml:space="preserve"
           style="font-style:normal;font-variant:normal;font-weight:normal;font-stretch:normal;font-size:11.7855px;font-family:'Britannic Bold';-inkscape-font-specification:'Britannic Bold, ';fill:#ffffff;stroke-width:0.0613827"
           x="114.97018"
           y="75.019737"
           id="text1"><tspan
             sodipodi:role="line"
             id="tspan1"
             style="font-style:normal;font-variant:normal;font-weight:normal;font-stretch:normal;font-family:'Britannic Bold';-inkscape-font-specification:'Britannic Bold, ';fill:#ffffff;stroke-width:0.0613827"
             x="114.97018"
             y="75.019737">T</tspan></text><text
           xml:space="preserve"
           style="font-style:normal;font-variant:normal;font-weight:normal;font-stretch:normal;font-size:11.7855px;font-family:'Britannic Bold';-inkscape-font-specification:'Britannic Bold, ';fill:#ffffff;stroke-width:0.0613827"
           x="121.98091"
           y="75.019859"
           id="text2"><tspan
             sodipodi:role="line"
             id="tspan2"
             style="font-style:normal;font-variant:normal;font-weight:normal;font-stretch:normal;font-family:'Britannic Bold';-inkscape-font-specification:'Britannic Bold, ';fill:#ffffff;stroke-width:0.0613827"
             x="121.98091"
             y="75.019859">E</tspan></text></g></g></g><g
     inkscape:groupmode="layer"
     id="layer2"
     inkscape:label="Layer 2"><circle
       style="display:none;fill:#0000ff;stroke-width:0.0874617"
       id="path2-7"
       cx="19.51985"
       cy="19.843752"
       r="13.229167" /><path
       d="M 24.34186,17.427558 15.56607,7.945754 C 14.81234,7.136831 13.76107,6.671631 12.65633,6.672662 L 9.47259,6.664862 C 8.70094,6.666462 8.22495,7.503941 8.61523,8.16514 l 5.51732,9.332339 -6.86445,0.04748 -2.50721,-3.057234 C 4.3869,14.029135 3.82105,13.758983 3.22982,13.760883 l -2.23446,-0.0036 c -0.64674,0.0018 -1.12234,0.603355 -0.9651,1.230909 l 1.67975,6.767075 c 0.14068,0.563694 0.52021,1.038948 1.03609,1.297897 l 7.63829,3.834196 c 0.27737,0.139223 0.58262,0.209037 0.88792,0.209578 l 18.93593,0.03258 c 3.22817,0.0023 6.33887,-1.214112 8.71004,-3.405968 1.22864,-1.133349 0.94313,-3.151744 -0.55458,-3.90355 l -3.184,-1.598269 c -1.12053,-0.562467 -2.36356,-0.853095 -3.61821,-0.84397 z"
       id="path1-6"
       style="display:none;fill:#000080;stroke-width:0.0620668"
       sodipodi:nodetypes="ccccccccccccsscccsscc" /><g
       id="g2"
       transform="matrix(2.2844789,0,0,2.243256,-257.59524,-153.05393)"
       style="display:none"><text
         xml:space="preserve"
         style="font-style:normal;font-variant:normal;font-weight:normal;font-stretch:normal;font-size:11.7294px;font-family:'Britannic Bold';-inkscape-font-specification:'Britannic Bold, ';fill:#ffffff;stroke-width:0.0610905"
         x="114.90499"
         y="81.541542"
         id="text1-8"><tspan
           sodipodi:role="line"
           id="tspan1-2"
           style="font-style:normal;font-variant:normal;font-weight:normal;font-stretch:normal;font-family:'Britannic Bold';-inkscape-font-specification:'Britannic Bold, ';fill:#ffffff;stroke-width:0.0610905"
           x="114.90499"
           y="81.541542">T</tspan></text><text
         xml:space="preserve"
         style="font-style:normal;font-variant:normal;font-weight:normal;font-stretch:normal;font-size:11.7294px;font-family:'Britannic Bold';-inkscape-font-specification:'Britannic Bold, ';fill:#ffffff;stroke-width:0.0610905"
         x="121.88235"
         y="81.541664"
         id="text2-0"><tspan
           sodipodi:role="line"
           id="tspan2-1"
           style="font-style:normal;font-variant:normal;font-weight:normal;font-stretch:normal;font-family:'Britannic Bold';-inkscape-font-specification:'Britannic Bold, ';fill:#ffffff;stroke-width:0.0610905"
           x="121.88235"
           y="81.541664">E</tspan></text></g></g></svg>
